<?xml version="1.0" standalone="no"?><!DOCTYPE svg PUBLIC "-//W3C//DTD SVG 1.1//EN" "http://www.w3.org/Graphics/SVG/1.1/DTD/svg11.dtd"><svg t="1754839593187" class="icon" viewBox="0 0 1536 1024" version="1.1" xmlns="http://www.w3.org/2000/svg" p-id="50601" xmlns:xlink="http://www.w3.org/1999/xlink" width="96" height="64"><path d="M1006.9504 192.7168A384 384 0 0 0 793.6 128V25.6a486.4 486.4 0 1 1-486.4 486.4h102.4A384 384 0 1 0 1006.9504 192.7168z" fill="#428BF9" p-id="50602"></path><path d="M887.3728 301.568A230.4 230.4 0 0 0 793.6 281.6V179.2a332.8 332.8 0 1 1-70.0672 658.1504l21.5552-100.096a230.4256 230.4256 0 0 0 219.8272-379.3152 230.4 230.4 0 0 0-77.5424-56.3968z" fill="#33D7BA" p-id="50603"></path><path d="M836.2752 448.1536A76.8 76.8 0 0 0 793.6 435.2v-102.4a179.2 179.2 0 0 1 126.72 305.92L847.872 566.272a76.8 76.8 0 0 0-11.6224-118.144z" fill="#e994e5" p-id="50604" data-spm-anchor-id="a313x.search_index.0.i22.2e403a81UxBq5u" class="selected"></path></svg>