<?xml version="1.0" standalone="no"?><!DOCTYPE svg PUBLIC "-//W3C//DTD SVG 1.1//EN" "http://www.w3.org/Graphics/SVG/1.1/DTD/svg11.dtd"><svg t="1753758383650" class="icon" viewBox="0 0 1024 1024" version="1.1" xmlns="http://www.w3.org/2000/svg" p-id="30373" xmlns:xlink="http://www.w3.org/1999/xlink" width="100" height="100"><path d="M0 0h1024v1024H0V0z" fill="#F5F5F5" fill-opacity="0" p-id="30374"></path><path d="M317.87 159.612c1.737-0.004 3.472-0.01 5.208-0.016 4.76-0.015 9.52-0.01 14.282-0.003 5.138 0.005 10.276-0.008 15.414-0.018 10.062-0.017 20.124-0.018 30.187-0.013 8.179 0.004 16.359 0.003 24.539-0.003 1.164 0 2.328 0 3.527-0.002l7.095-0.005c22.18-0.013 44.36-0.008 66.54 0.004 20.288 0.01 40.575-0.003 60.863-0.027 20.834-0.025 41.668-0.034 62.503-0.028 11.695 0.004 23.39 0.002 35.086-0.016 9.957-0.015 19.914-0.015 29.87 0.002 5.08 0.01 10.159 0.011 15.238-0.005 4.653-0.013 9.305-0.009 13.958 0.011 1.68 0.003 3.359 0.001 5.039-0.01 14.188-0.082 26.029 2.33 36.719 12.33 8.26 8.831 12.377 19.456 12.337 31.518l0.015 2.432c0.014 2.636 0.013 5.272 0.01 7.91l0.014 5.54c0.007 3.866 0.007 7.733 0.002 11.6-0.006 4.93 0.01 9.86 0.034 14.79 0.015 3.814 0.016 7.628 0.013 11.442 0 1.817 0.005 3.633 0.016 5.45 0.123 25.248 0.123 25.248-9.38 35.505-5.682 5.683-13.136 8.217-21.061 8.5-9.587-0.38-16.456-4.592-22.938-11.5-5.663-7.6-5.891-16.664-6.437-25.875-0.336-4.677-0.635-8.288-3.563-12.125-5.271-3.253-9.723-4.124-15.83-4.132l-3.631-0.01-3.994 0.001a5669.076 5669.076 0 0 0-15.905-0.019c-4.191-0.002-8.383-0.01-12.575-0.016-9.167-0.014-18.334-0.02-27.502-0.025-5.722-0.002-11.445-0.007-17.168-0.01a83656.36 83656.36 0 0 0-47.526-0.027h-6.152l-6.18-0.003h-3.095c-16.56-0.004-33.12-0.022-49.678-0.045-16.996-0.024-33.993-0.036-50.99-0.037-9.544 0-19.09-0.007-28.634-0.025a8614.09 8614.09 0 0 0-24.38-0.012c-4.146 0.004-8.293 0.003-12.44-0.01-3.796-0.014-7.593-0.013-11.39 0-2.022 0.002-4.045-0.01-6.068-0.022-7.621 0.041-13.03 0.388-19.174 5.204-3.544 4.594-3.938 9.434-3.937 15.086l-0.008 2.04c-0.006 2.253 0.002 4.507 0.01 6.76l-0.007 4.9c-0.007 4.486-0.001 8.974 0.007 13.461 0.007 4.841 0.002 9.682-0.001 14.523-0.006 9.491 0 18.981 0.009 28.472 0.01 11.074 0.01 22.148 0.01 33.223 0 19.79 0.009 39.58 0.023 59.371 0.014 19.148 0.022 38.296 0.02 57.444v7.12c0 21.846 0.006 43.693 0.015 65.54 0.003 7.691 0.004 15.383 0.004 23.075 0 9.413 0.006 18.826 0.015 28.24 0.004 4.79 0.007 9.578 0.006 14.368-0.003 16.722 0.005 33.448 0.419 50.165 0.047 1.965 0.08 3.931 0.115 5.896 0.105 8.24 0.105 8.24 3.612 15.504 3.783 2.752 6.42 3.375 11.065 3.377l3.713 0.024 4.07-0.02a2248.942 2248.942 0 0 0 16.235 0.011c4.278-0.007 8.557 0.004 12.836 0.012 8.383 0.013 16.766 0.01 25.149 0.002a13922.028 13922.028 0 0 1 23.373-0.003l5.905 0.002c18.465 0.01 36.93 0 55.396-0.017 15.848-0.013 31.696-0.01 47.544 0.003 18.397 0.016 36.794 0.022 55.19 0.013 1.963 0 3.924-0.002 5.886-0.003h2.925c6.804-0.004 13.609 0.001 20.413 0.008 8.292 0.008 16.584 0.006 24.876-0.01 4.232-0.008 8.463-0.01 12.695 0 3.873 0.008 7.746 0.003 11.619-0.013 1.402-0.004 2.803-0.002 4.205 0.005 1.905 0.01 3.81-0.002 5.715-0.014h3.207c5.008-0.633 8.146-2.336 11.296-6.252 2.555-4.733 2.812-8.886 2.825-14.209l0.017-3.704 0.003-4.039 0.015-4.274c0.012-3.064 0.02-6.128 0.026-9.19 0.01-4.852 0.03-9.702 0.054-14.553 0.06-13.79 0.115-27.583 0.149-41.374 0.018-7.62 0.047-15.24 0.088-22.86 0.02-4.028 0.036-8.057 0.038-12.085 0.003-3.792 0.018-7.584 0.045-11.376 0.007-1.386 0.009-2.773 0.006-4.159-0.022-10.519 0.767-20.403 8.42-28.302 6.896-5.532 13.363-8.547 22.286-8.305 8.253 0.926 14.475 4.023 20.059 10.145 4.104 5.353 6.774 11.09 6.793 17.884l0.016 2.962v3.262l0.014 3.46c0.01 3.173 0.018 6.347 0.023 9.521 0.006 3.421 0.017 6.843 0.028 10.264 0.024 8.267 0.039 16.535 0.052 24.802l0.012 7.008c0.025 14.512 0.047 29.023 0.059 43.535l0.009 10.085 0.003 2.532c0.012 13.523 0.045 27.046 0.087 40.57a14841 14841 0 0 1 0.07 41.67c0.005 7.796 0.016 15.591 0.049 23.388 0.028 6.642 0.039 13.284 0.028 19.927-0.005 3.386 0 6.771 0.023 10.157 0.022 3.681 0.014 7.361-0.002 11.042l0.042 3.201c-0.12 11.424-4.593 21.755-12.65 29.89-5.551 4.653-11.095 7.857-18 10l-1.79 0.562c-3.087 0.612-6.054 0.566-9.202 0.57l-2.144 0.005c-2.382 0.006-4.764 0.005-7.146 0.003l-5.162 0.01c-4.737 0.007-9.475 0.01-14.212 0.01-5.106 0.002-10.212 0.01-15.318 0.016-11.17 0.013-22.34 0.02-33.508 0.024l-20.92 0.011c-19.303 0.013-38.606 0.023-57.91 0.026l-3.744 0.001-3.754 0.001-7.531 0.001-3.773 0.001c-20.175 0.004-40.35 0.021-60.525 0.044-20.71 0.024-41.418 0.036-62.127 0.038-11.63 0.001-23.258 0.006-34.887 0.024-9.903 0.016-19.806 0.021-29.71 0.013-5.051-0.004-10.103-0.003-15.156 0.011-4.627 0.012-9.255 0.011-13.883 0-1.671-0.003-3.343 0-5.015 0.01-13.878 0.067-25.763-1.575-36.555-11.127-10.188-10.77-13.347-23.679-13.282-38.042l-0.01-3.203c-0.008-3.542-0.002-7.083 0.003-10.624-0.003-2.565-0.006-5.13-0.011-7.695-0.01-5.576-0.01-11.153-0.007-16.729 0.006-8.293 0-16.585-0.01-24.878-0.014-15.673-0.016-31.345-0.013-47.018 0.002-12.103 0-24.206-0.004-36.309l-0.002-5.217-0.003-7.862c-0.008-24.363-0.013-48.727-0.01-73.09 0.002-0.919 0.002-1.838 0.002-2.784l0.002-13.965v-2.802l0.002-5.608c0.005-29.09-0.003-58.18-0.021-87.27-0.021-32.686-0.031-65.37-0.027-98.057v-13.056c0.002-12.954-0.005-25.907-0.015-38.86-0.012-14.732-0.014-29.464-0.001-44.197 0.006-8.242 0.005-16.485-0.01-24.727a5168.68 5168.68 0 0 1 0.01-18.47c0.004-2.49 0-4.979-0.007-7.468-0.01-3.386-0.001-6.772 0.01-10.158l-0.021-2.92c0.108-13.584 4.173-25.344 13.382-35.394 3.597-3.305 7.635-5.72 12.015-7.85l3.116-1.56c6.892-2.527 14.515-1.857 21.755-1.829z" p-id="30375" data-spm-anchor-id="a313x.search_index.0.i40.26793a81byY4DI" class="selected"></path><path d="M824.71 364.965c5.945 2.809 11.422 6.346 16.919 9.93l2.224 1.445a5561.167 5561.167 0 0 1 27.522 18.035l2.863 1.885a4239.798 4239.798 0 0 1 44.898 30.026c10.3 6.976 20.63 13.904 31.028 20.738l3.046 2.002c4.843 3.18 9.69 6.356 14.542 9.523l5.256 3.443 2.362 1.534C993.555 475.458 993.555 475.458 997 484c1.182 6.479 1.03 12.19-2.5 17.875-6.57 8.36-15.255 13.794-24.054 19.52-4.448 2.918-8.866 5.879-13.29 8.832a9994.838 9994.838 0 0 1-10.461 6.969c-3.816 2.537-7.631 5.077-11.445 7.617l-2.497 1.662a5006.915 5006.915 0 0 0-30.085 20.178c-0.934 0.63-1.867 1.263-2.83 1.914l-5.617 3.8c-13.514 9.143-27.034 18.234-40.87 26.887-4.894 3.064-9.69 6.273-14.44 9.555-11.44 7.792-11.44 7.792-18.036 7.629l-2.383-0.004C808.927 614.77 800.44 605.65 795 598c-2.065-4.523-2.86-9.08-2-14 3.332-8.761 9.363-13.295 16.938-18.301 5.65-3.752 11.28-7.536 16.902-11.332l2.709-1.828c3.719-2.51 7.437-5.021 11.154-7.532a6666.485 6666.485 0 0 1 37.982-25.466c3.285-2.186 6.568-4.375 9.85-6.564 13.125-8.75 13.125-8.75 16.294-10.86 2.185-1.46 4.366-2.924 6.542-4.4l3.25-2.193 2.916-1.98C920 492 920 492 923 491v-2l-2.24-0.836c-2.547-1.074-4.627-2.25-6.913-3.787l-2.381-1.59-2.544-1.72-2.681-1.796a4491.315 4491.315 0 0 1-8.491-5.708c-3.691-2.48-7.384-4.958-11.078-7.434l-2.76-1.851c-6.897-4.62-13.848-9.15-20.828-13.644-10.921-7.032-21.747-14.213-32.59-21.364a1667.072 1667.072 0 0 0-12.117-7.914c-2.714-1.757-5.42-3.527-8.127-5.293l-2.88-1.84c-6.827-4.481-13.042-9.563-16.37-17.223-0.914-6.071-0.87-11.483 2.5-16.75 7.938-10.291 17.279-20.243 31.21-15.285z m-615.597-9.348C217.485 359.41 224.177 366.313 229 374c1.731 5.193 1.487 9.513-0.188 14.625-3.352 6.242-7.429 10.183-13.308 14.027l-1.883 1.263a1115.192 1115.192 0 0 1-6.059 4.022l-4.227 2.827a3641.508 3641.508 0 0 1-8.44 5.636c-5.118 3.41-10.196 6.876-15.27 10.35a9792.55 9792.55 0 0 1-5.278 3.601l-2.64 1.802a17017.044 17017.044 0 0 1-41.986 28.531l-3.997 2.71a5870.24 5870.24 0 0 1-10.986 7.43c-1.754 1.186-3.503 2.38-5.25 3.574-1.625 1.1-1.625 1.1-3.28 2.223l-2.904 1.978C101 480 101 480 99 480v2l1.954 0.64c4.261 1.903 7.935 4.495 11.78 7.125l2.6 1.762c2.808 1.903 5.612 3.813 8.416 5.723 2.935 1.992 5.872 3.982 8.81 5.971l5.931 4.02a3320.877 3320.877 0 0 0 25.946 17.384 4111.899 4111.899 0 0 1 40.611 27.37c2.68 1.82 5.371 3.624 8.07 5.42l2.256 1.514c1.304 0.874 2.611 1.742 3.925 2.601 5.003 3.378 9.58 7.673 11.701 13.47 0.92 6.231 0.63 11.637-3.106 16.816-13.3 15.33-13.3 15.33-20.269 16.625-13.899 0.641-26.384-11.207-37.388-18.703-4.77-3.248-9.55-6.482-14.33-9.715l-2.99-2.022c-10.25-6.92-20.579-13.716-30.917-20.5a4279.35 4279.35 0 0 1-50.104-33.435c-0.828-0.56-1.657-1.12-2.51-1.699-1.639-1.109-3.276-2.22-4.912-3.332a767.365 767.365 0 0 0-13.182-8.747l-2.87-1.873a623.243 623.243 0 0 0-5.449-3.512C35.543 500.045 29.62 494.735 27 486c-1.086-7.94 0.21-13.586 5-20 3.46-4.317 7.476-7.414 12.09-10.434 5.211-3.438 10.396-6.91 15.566-10.41l4.791-3.239 2.493-1.687a8572.857 8572.857 0 0 1 53.52-35.877 9383.052 9383.052 0 0 0 15.42-10.283c62.325-41.639 62.325-41.639 73.233-38.453zM702 349c6.786 4.524 12.405 11.215 15 19 1.032 14.111-1.831 22.311-11 33a744.274 744.274 0 0 1-6.688 7.406c-2.314 2.596-4.507 5.26-6.687 7.969-3.682 4.554-7.554 8.862-11.541 13.146a186.114 186.114 0 0 0-8.522 9.917c-3.842 4.777-7.93 9.252-12.118 13.724-3.923 4.212-7.563 8.602-11.167 13.092-2.495 3.009-5.115 5.885-7.777 8.746-3.474 3.733-6.801 7.524-10 11.5-3.636 4.519-7.468 8.78-11.416 13.022a185.24 185.24 0 0 0-8.522 9.916c-3.365 4.184-6.894 8.145-10.562 12.062-4.479 4.783-8.685 9.708-12.789 14.82-2.32 2.813-4.742 5.498-7.211 8.18a217.637 217.637 0 0 0-9.438 10.938c-3.658 4.535-7.509 8.819-11.476 13.081a190.577 190.577 0 0 0-8.586 9.981c-4.11 5.104-8.476 9.91-12.93 14.711a281.635 281.635 0 0 0-6.32 7.101A1141.364 1141.364 0 0 1 529 604l-1.629 1.867c-5.881 6.359-13.559 10.784-22.316 11.31-3.664 0.066-7.328 0.108-10.993 0.135l-3.865 0.088-3.724 0.026-3.399 0.044c-3.749-0.573-5.382-1.853-8.074-4.47-2.29-4.579-1.321-10.85-1.375-15.875l-0.113-3.859c-0.11-11.875 2.778-21.372 10.988-30.078l3.188-3.551 1.652-1.807c2.777-3.061 5.462-6.2 8.16-9.33l3.277-3.777c4.602-5.311 9.171-10.65 13.739-15.989 2.993-3.498 5.99-6.992 8.986-10.486 2.489-2.904 4.977-5.807 7.463-8.713a3236.174 3236.174 0 0 1 15.597-18.097c4.012-4.619 7.996-9.26 11.938-13.938 4.484-5.321 9.028-10.588 13.592-15.842 3.671-4.227 7.328-8.467 10.97-12.72l1.491-1.741L589 442a4306.482 4306.482 0 0 1 20.142-23.392 3479.128 3479.128 0 0 0 15.374-17.874c2.493-2.913 4.989-5.823 7.484-8.734l3-3.5 6-7 1.501-1.751c0.996-1.163 1.994-2.325 2.992-3.486a834.452 834.452 0 0 0 7.612-8.974C666.508 351.298 680.453 338.081 702 349z" p-id="30376" data-spm-anchor-id="a313x.search_index.0.i36.26793a81byY4DI" class="selected" fill="#FE6E00"></path><path d="M191 95l-0.332 1.625c-0.564 2.79-1.116 5.583-1.668 8.375l-0.73 3.594c-8.438 42.827-4.965 85.251 18.832 122.715A128.693 128.693 0 0 0 213 239l1.297 1.592c4.885 5.974 9.844 11.831 15.461 17.138 2.295 2.346 2.478 4.41 2.617 7.582l0.148 2.301c-0.79 3.604-2.75 5.03-5.523 7.387a103.173 103.173 0 0 1-6.125 3.562C207.47 285.957 194.681 294.439 182 303a1677.45 1677.45 0 0 1-10.992 7.324 345.703 345.703 0 0 0-8.391 5.758l-4.429 3.043-2.027 1.472c-4.602 3.113-8.234 3.948-13.773 3.965-4.184-0.985-6.629-3.472-9.038-6.934l-1.436-2.636-1.621-2.963-1.668-3.154-1.736-3.256c-19.608-37.407-24.567-80.4-12.425-121.098 11.366-35.794 36.043-70.242 69.852-87.853C186.933 95.336 187.964 95 191 95z m642 0c16.593 2.435 34.759 20.54 45 33l2.496 2.953c22.043 26.599 34.973 60.663 34.765 95.248-0.011 2.099 0 4.198 0.012 6.297 0.016 13.287-1.134 26.297-5.023 39.064l-0.802 2.695C905.971 285.692 901.471 296.382 896 307l-1.222 2.393c-6.284 11.86-6.284 11.86-11.778 14.607-7.825 1.316-12.567-1.554-18.836-5.922l-2.784-1.864a1021.575 1021.575 0 0 1-8.755-5.964 3624.71 3624.71 0 0 0-5.754-3.887c-2.85-1.921-5.7-3.843-8.546-5.771a711.371 711.371 0 0 0-18.645-12.205l-2.241-1.418c-5.956-3.735-12.034-7.243-18.183-10.649-3.973-2.215-6.334-4.026-8.256-8.32-0.625-2.812-0.625-2.812 0-6 2.04-2.943 4.51-5.436 7-8 29.325-31.086 43.101-68.226 42.258-110.914-0.49-12.748-2.948-25.408-5.61-37.859-0.682-3.397-1.187-6.794-1.648-10.227zM412.76 345.853l3.64-0.022 4-0.008 4.21-0.02c4.61-0.021 9.22-0.031 13.831-0.041l4.768-0.012c7.471-0.02 14.942-0.034 22.413-0.042 8.61-0.01 17.22-0.036 25.83-0.077 6.663-0.03 13.325-0.045 19.988-0.048 3.975-0.002 7.951-0.011 11.926-0.036 3.745-0.024 7.49-0.028 11.236-0.018 2.016 0 4.032-0.018 6.048-0.038 10.574 0.06 18.761 2.154 26.592 9.509 6.095 6.935 8.152 13.996 8.031 23.059-0.794 8.547-5.03 15.232-11.273 20.94-8.994 7.084-18.34 7.3-29.402 7.292-1.343 0.006-2.686 0.012-4.029 0.02-3.628 0.018-7.256 0.022-10.884 0.024-2.273 0-4.545 0.005-6.817 0.01-7.943 0.019-15.885 0.027-23.827 0.026a5104.7 5104.7 0 0 0-22.137 0.05c-6.356 0.027-12.712 0.038-19.068 0.037-3.787-0.001-7.574 0.005-11.36 0.026-3.566 0.02-7.13 0.02-10.695 0.005-1.915-0.003-3.829 0.014-5.744 0.03-10.495-0.075-19.543-2.114-27.315-9.52-6.544-7.597-8.105-14.871-7.996-24.68 0.691-8.383 5.21-14.707 11.274-20.32 5.481-4.06 9.86-6.118 16.76-6.146z m8.119 98.518c1.42 0 2.843-0.003 4.264-0.007 2.963-0.003 5.925 0.011 8.888 0.04 3.775 0.033 7.548 0.027 11.323 0.008 2.93-0.01 5.86 0 8.79 0.014 1.39 0.005 2.782 0.004 4.172-0.002 11.6-0.033 19.41 1.811 27.96 9.783 5.444 5.665 7.788 11.335 8.037 19.105-0.178 8.201-2.518 15.707-8.313 21.688-6.652 5.336-12.856 8.224-21.49 8.306l-3.843 0.05-4.12 0.015-4.274 0.027c-2.983 0.017-5.965 0.025-8.947 0.027-3.797 0.006-7.594 0.043-11.391 0.09-2.942 0.03-5.885 0.036-8.828 0.037-1.398 0.004-2.797 0.017-4.195 0.038-10.18 0.141-17.59-1.172-25.533-7.766-7.095-8.346-9.006-14.369-8.723-25.422 0.853-8.437 5.152-14.774 11.344-20.402 7.837-5.516 15.576-5.728 24.879-5.629z" p-id="30377"></path><path d="M501.313 756.602l2.587-0.01c1.792-0.001 3.583 0.005 5.375 0.017 2.719 0.016 5.436 0 8.155-0.02 1.753 0.003 3.505 0.007 5.258 0.013 1.2-0.01 1.2-0.01 2.425-0.018 9.315 0.114 16.223 2.784 22.933 9.26 5.55 6.126 6.686 11.654 6.4 19.903-1.03 7.52-4.564 13.15-10.31 18-6.658 3.907-12.627 4.72-20.19 4.722l-2.854 0.023c-1.982 0.01-3.964 0.014-5.946 0.009-3.007-0.001-6.01 0.04-9.018 0.085-20.038 0.127-20.038 0.127-28.235-7.561-5.183-5.377-7.982-10.817-8.393-18.337 0.263-8.002 3.497-14.137 9.25-19.625 6.284-5.561 14.493-6.522 22.562-6.461z m-51.792-556.749l3.48-0.022 3.82-0.008 4.021-0.02c4.403-0.021 8.806-0.031 13.208-0.041l4.55-0.012c7.123-0.02 14.247-0.034 21.371-0.042 8.22-0.01 16.44-0.036 24.661-0.077 6.356-0.03 12.712-0.045 19.068-0.048 3.795-0.002 7.59-0.011 11.385-0.036 3.571-0.024 7.142-0.028 10.714-0.018 1.931 0 3.862-0.018 5.793-0.038 6.4 0.039 10.596 0.08 15.408 4.509 2.108 2.659 2 3.987 1.937 7.438-0.86 3.267-1.562 5.224-4.034 7.532-4.558 2.467-10.299 1.707-15.335 1.66-1.382 0.006-2.764 0.014-4.145 0.023-3.746 0.018-7.492 0.006-11.238-0.014-3.923-0.017-7.845-0.008-11.768-0.003a3945.08 3945.08 0 0 1-19.762-0.04 3621.42 3621.42 0 0 0-22.836-0.014c-7.328 0.016-14.655 0.009-21.982-0.008-3.116-0.006-6.233-0.005-9.349 0.002-3.67 0.008-7.34-0.005-11.012-0.032a592.43 592.43 0 0 0-5.962 0.009l-3.594-0.038-3.117-0.01c-3.54-0.638-5.227-2.046-7.803-4.505-1.575-3.15-1.348-5.52-1-9 3.354-5.828 7.063-7.12 13.521-7.147z" p-id="30378"></path><path d="M415.707 402.88l3.68-0.004 4.058 0.01h4.257c3.86 0 7.72 0.006 11.578 0.013 4.031 0.006 8.061 0.007 12.092 0.008 7.636 0.003 15.271 0.01 22.907 0.02 8.691 0.012 17.383 0.018 26.074 0.023 17.883 0.01 35.765 0.028 53.647 0.05-3.422 3.422-7.034 3.126-11.707 3.134l-3.526 0.013-3.858-0.001-4.07 0.01c-3.682 0.009-7.364 0.01-11.045 0.012-3.072 0-6.144 0.004-9.216 0.008-7.243 0.008-14.487 0.01-21.73 0.01-7.48-0.001-14.96 0.01-22.44 0.025-6.419 0.013-12.838 0.019-19.256 0.018-3.836 0-7.67 0.003-11.506 0.013-3.603 0.01-7.207 0.01-10.81 0.003-1.958-0.002-3.916 0.007-5.874 0.015l-3.51-0.013-3.062 0.002c-2.39-0.25-2.39-0.25-4.39-2.25 2.675-1.336 4.71-1.122 7.707-1.12zM842 134h1c0.049 4.378 0.086 8.756 0.11 13.135 0.01 1.49 0.024 2.98 0.041 4.469 0.024 2.14 0.035 4.28 0.044 6.419l0.032 3.904C843 165 843 165 841 167c-1.478-2.957-1.06-5.742-1-9h1l1-24z" p-id="30379"></path><path d="M730 161c7.429 3.166 12.639 6.965 18 13l-1 3-2.375-3.125c-3.294-3.884-7.028-6.166-11.453-8.613C731 164 731 164 729 162l1-1z" p-id="30380"></path><path d="M573 461l2 1a920.699 920.699 0 0 1-11 13l-2-2 11-12z" p-id="30381"></path><path d="M911 264c2.082 3.43 2.082 3.43 1.723 5.922L912 272l-0.754 2.578-0.808 2.672-0.817 2.703L909 282h-2l4-18z" p-id="30382"></path><path d="M668 351l2 2-9 9-3-1 10-10z" p-id="30383"></path><path d="M144 511c6.018 1.138 8.685 2.577 13 7l3 2-1 2a2849.856 2849.856 0 0 1-7.5-4.938l-2.168-1.419A272.363 272.363 0 0 1 144 512v-1z m551-165c7.024 0.149 10.817 3.499 16 8l-2 2-1.285-1.207c-4.043-3.652-7.602-5.915-12.715-7.793v-1z" p-id="30384"></path><path d="M801 603c8.446 6.15 8.446 6.15 12 10-3.927 0-4.819-1.279-7.688-3.875l-2.449-2.18C801 605 801 605 801 603z" p-id="30385"></path><path d="M791 268l2.188 2.312c2.651 2.732 2.651 2.732 5.624 4.376L801 276v2c-4.349-0.502-6.956-3.025-10-6v-4z" p-id="30386"></path><path d="M644 378l3 1-2.25 1.688c-2.667 2.242-4.666 4.533-6.75 7.312l-2-1 8-9zM525 516l2 1c-1.293 2.884-2.659 4.872-5 7l-3-1 6-7z" p-id="30387"></path><path d="M799 253l1 3-4.492 3.711c-1.219 1.042-2.375 2.156-3.508 3.289 0.576-3.353 1.593-4.938 4.062-7.25l1.661-1.578L799 253z m9-10c0 3.589-0.664 4.109-3 6.688l-1.688 1.886L802 253l-2-1 8-9z" p-id="30388"></path><path d="M535 505c0 3.589-0.664 4.109-3 6.688l-1.688 1.886L529 515l-2-1 8-9z" p-id="30389"></path><path d="M912 212h3v8l-2 1c-1.478-2.957-1.06-5.742-1-9z" p-id="30390"></path><path d="M844 543l1 2c-5.625 5-5.625 5-9 5v-2c1.75-1.289 1.75-1.289 4-2.625l2.25-1.352L844 543z m-283-69l1 4-5 4-2-1 6-7z" p-id="30391"></path><path d="M542 804l1 2h-2v2l-6 1v-2l7-3z" p-id="30392"></path><path d="M833 95c3.688 0.498 5.605 1.101 8 4l-6-2-1 4-1-6zM409 347c-2.068 2.797-3.144 3.027-6.688 3.688L399 351c3.339-3.491 5.153-4.128 10-4z" p-id="30393"></path><path d="M203 288l2 1-3 3-3-1 4-3z m-6 4l2 1h-3l1-1z m-3 2l2 1z" p-id="30394"></path><path d="M191 95l-1 5-1-3-6 2c2.701-2.824 3.944-4 8-4z" p-id="30395"></path></svg>