<?xml version="1.0" standalone="no"?><!DOCTYPE svg PUBLIC "-//W3C//DTD SVG 1.1//EN" "http://www.w3.org/Graphics/SVG/1.1/DTD/svg11.dtd"><svg t="1754838822716" class="icon" viewBox="0 0 1024 1024" version="1.1" xmlns="http://www.w3.org/2000/svg" p-id="11566" xmlns:xlink="http://www.w3.org/1999/xlink" width="64" height="64"><path d="M512 0c279.947636 0 507.415273 224.605091 511.930182 503.528727L1024 512c0 279.947636-224.605091 507.415273-503.528727 511.930182L512 1024C229.236364 1024 0 794.833455 0 512 0 232.052364 224.605091 4.584727 503.528727 0.069818L512 0z m279.272727 349.090909h-97.140363v325.818182H791.272727V349.090909z m-303.546182 146.059636h-97.140363V674.909091h97.140363v-179.758546zM499.851636 349.090909H232.727273v325.818182h97.140363V438.970182h169.984l2.56-0.256c19.502545-1.093818 38.353455 17.92 33.861819 45.195636V674.909091h97.140363v-190.999273l-0.093091-5.306182c-2.792727-74.007273-63.534545-129.512727-133.469091-129.512727z" fill="#FF8810" p-id="11567"></path></svg>