<?xml version="1.0" standalone="no"?><!DOCTYPE svg PUBLIC "-//W3C//DTD SVG 1.1//EN" "http://www.w3.org/Graphics/SVG/1.1/DTD/svg11.dtd"><svg t="1754838658624" class="icon" viewBox="0 0 1024 1024" version="1.1" xmlns="http://www.w3.org/2000/svg" p-id="6532" width="64" height="64" xmlns:xlink="http://www.w3.org/1999/xlink"><path d="M0 0h1024v1024H0z" fill="#FFD000" p-id="6533"></path><path d="M809.6768 350.5152a635.26912 635.26912 0 0 0-61.5424-57.0368c-16.0768-14.0288-34.7136-29.3888-56.32-45.9776-60.0064-45.9776-69.5296-60.6208-89.9072-82.432-6.144-6.5536-16.7936-15.9744-31.232-18.0224-14.4384-2.048-27.136 3.9936-34.9184 8.4992-25.6 15.36-39.0144 26.624-109.4656 54.1696-21.9136 8.4992-41.472 16.7936-58.88 24.7808a605.96224 605.96224 0 0 0-83.8656 41.1648 310.33344 310.33344 0 0 0-152.064 222.9248c-9.1136 60.416 0.4096 122.0608 27.2384 176.9472l0.1024 0.3072c1.8432 3.8912 3.7888 7.7824 5.8368 11.5712 2.4576 4.5056 5.2224 8.9088 8.192 13.2096 56.32 89.3952 165.5808 153.3952 293.7856 171.6224 128.2048 18.2272 250.88-12.6976 330.0352-82.6368 3.9936-3.2768 7.8848-6.7584 11.4688-10.3424 3.4816-3.4816 6.4512-6.7584 9.4208-10.1376l0.3072-0.3072c1.4336-1.536 2.6624-3.072 4.1984-4.7104a301.568 301.568 0 0 0 71.0656-157.184 309.21728 309.21728 0 0 0-83.456-256.4096z m-50.176 238.1824a166.8096 166.8096 0 0 1-39.5264 87.552l-2.1504 2.3552c-1.8432 2.048-3.584 4.096-5.4272 6.0416-1.024 0.9216-2.1504 1.8432-3.2768 2.6624-47.104 43.3152-131.7888 65.3312-223.9488 52.224-92.16-13.1072-167.424-57.856-200.3968-112.5376-0.8192-1.1264-1.6384-2.2528-2.3552-3.4816-1.2288-2.2528-2.2528-4.608-3.4816-6.9632l-1.6384-3.3792a167.3216 167.3216 0 0 1-13.2096-94.72c5.9392-39.7312 25.2928-76.288 54.8864-103.5264 12.8-13.0048 27.136-24.1664 42.9056-33.28 17.408-10.24 35.6352-19.1488 54.4768-26.5216 11.3664-5.12 24.064-10.5472 38.2976-16.0768 33.4848-13.0048 47.104-20.48 58.5728-27.4432 8.3968-5.4272 16.7936-11.0592 24.9856-16.9984h0.3072c3.072-2.2528 6.8608-3.1744 10.6496-2.6624 3.7888 0.512 7.168 2.4576 9.6256 5.4272h0.2048l0.3072 0.3072c4.3008 5.4272 8.704 10.752 13.2096 16.1792 10.8544 12.1856 19.5584 22.528 54.6816 49.4592 14.0288 10.8544 26.112 20.7872 36.6592 29.7984 14.1312 11.4688 27.4432 23.8592 39.936 37.1712 12.288 13.0048 22.8352 27.4432 31.4368 43.008 21.0944 34.4064 29.696 75.1616 24.2688 115.4048z" fill="#FFFFFF" p-id="6534"></path></svg>